<svg width="16" height="12" viewBox="0 0 16 12" fill="none" xmlns="http://www.w3.org/2000/svg">
<path d="M13.256 1.005C12.243 0.5355 11.1599 0.194289 10.0276 0C9.88848 0.249071 9.72601 0.584077 9.61399 0.850574C8.41025 0.671245 7.21758 0.671245 6.03597 0.850574C5.92398 0.584077 5.75781 0.249071 5.6175 0C4.48391 0.194289 3.39954 0.536754 2.38657 1.00748C0.343388 4.06602 -0.210484 7.04858 0.066453 9.98879C1.4216 10.9913 2.73489 11.6003 4.02603 11.9988C4.34482 11.5641 4.62913 11.1021 4.87406 10.6152C4.40758 10.4396 3.96079 10.2229 3.53863 9.97137C3.65063 9.88918 3.76018 9.80324 3.86602 9.71482C6.44091 10.9079 9.23859 10.9079 11.7827 9.71482C11.8898 9.80324 11.9993 9.88918 12.1101 9.97137C11.6867 10.2242 11.2387 10.4408 10.7722 10.6165C11.0171 11.1021 11.3002 11.5654 11.6202 12C12.9126 11.6015 14.2271 10.9925 15.5823 9.98879C15.9072 6.58034 15.0272 3.62516 13.256 1.005ZM5.22486 8.18059C4.4519 8.18059 3.81801 7.46576 3.81801 6.59528C3.81801 5.72479 4.43836 5.00873 5.22486 5.00873C6.01137 5.00873 6.64523 5.72354 6.6317 6.59528C6.63292 7.46576 6.01137 8.18059 5.22486 8.18059ZM10.4239 8.18059C9.65093 8.18059 9.01704 7.46576 9.01704 6.59528C9.01704 5.72479 9.63737 5.00873 10.4239 5.00873C11.2104 5.00873 11.8443 5.72354 11.8307 6.59528C11.8307 7.46576 11.2104 8.18059 10.4239 8.18059Z" fill="white"/>
</svg>
