<svg width="38" height="38" viewBox="0 0 38 38" fill="none" xmlns="http://www.w3.org/2000/svg">
<path d="M37 18.1592C37.5523 18.1592 38.0027 18.6072 37.9737 19.1587C37.805 22.3623 36.8273 25.477 35.1247 28.2087C33.2456 31.2239 30.5587 33.6517 27.3691 35.2167C24.1796 36.7816 20.6152 37.4209 17.0805 37.062C13.5459 36.7031 10.1828 35.3603 7.3729 33.1862C4.56302 31.012 2.41902 28.0936 1.18431 24.7623C-0.0503956 21.431 -0.326334 17.8202 0.387826 14.3399C1.10199 10.8596 2.77763 7.64933 5.22451 5.07347C7.44141 2.73971 10.2109 1.01146 13.2695 0.0439339C13.7961 -0.122633 14.3429 0.200936 14.4815 0.735537L15.1648 3.37022C15.3034 3.90482 14.981 4.4472 14.4574 4.6229C12.2525 5.36281 10.2566 6.63202 8.64796 8.3255C6.80918 10.2612 5.54996 12.6737 5.01328 15.2891C4.4766 17.9044 4.68397 20.6179 5.61183 23.1213C6.53969 25.6247 8.15087 27.8179 10.2624 29.4517C12.374 31.0855 14.9014 32.0946 17.5576 32.3643C20.2138 32.634 22.8924 32.1536 25.2893 30.9776C27.6862 29.8015 29.7053 27.9771 31.1175 25.7112C32.3529 23.7289 33.0804 21.4783 33.2432 19.1584C33.2818 18.6074 33.7259 18.1592 34.2782 18.1592H37Z" fill="white"/>
<path d="M19.336 25.4472C21.784 25.4472 24.064 24.4152 25.456 22.7112C25.816 22.2792 25.96 21.8952 25.96 21.5112C25.96 20.7192 25.312 20.0472 24.472 20.0472C23.992 20.0472 23.584 20.2632 23.2 20.6712C22.144 21.8712 20.872 22.4472 19.36 22.4472C16.384 22.4472 14.248 20.2872 14.248 17.2632C14.248 14.2152 16.384 12.0312 19.36 12.0312C20.896 12.0312 22.192 12.6072 23.224 13.8072C23.584 14.2152 24.016 14.4312 24.472 14.4312C25.312 14.4312 25.984 13.7592 25.984 12.9672C25.984 12.5352 25.816 12.1512 25.48 11.7672C24.064 10.0632 21.784 9.03118 19.36 9.03118C14.608 9.03118 10.912 12.6312 10.912 17.2392C10.912 21.8472 14.584 25.4472 19.336 25.4472Z" fill="white"/>
</svg>
