<svg width="17" height="17" viewBox="0 0 17 17" fill="none" xmlns="http://www.w3.org/2000/svg">
<path d="M12.75 8.5L13.1036 8.85355L13.4571 8.5L13.1036 8.14645L12.75 8.5ZM8.85355 13.1036L13.1036 8.85355L12.3964 8.14645L8.14645 12.3964L8.85355 13.1036ZM13.1036 8.14645L8.85355 3.89645L8.14645 4.60355L12.3964 8.85355L13.1036 8.14645Z" fill="white"/>
<path d="M8.5 8.5L8.85355 8.85355L9.20711 8.5L8.85355 8.14645L8.5 8.5ZM4.60355 13.1036L8.85355 8.85355L8.14645 8.14645L3.89645 12.3964L4.60355 13.1036ZM8.85355 8.14645L4.60355 3.89645L3.89645 4.60355L8.14645 8.85355L8.85355 8.14645Z" fill="white"/>
</svg>
