<svg width="12" height="12" viewBox="0 0 12 12" fill="none" xmlns="http://www.w3.org/2000/svg">
<path d="M6.25 8.5C6.25 8.63807 6.13807 8.75 6 8.75C5.86193 8.75 5.75 8.63807 5.75 8.5L6.25 8.5ZM5.75 1.5C5.75 1.36193 5.86193 1.25 6 1.25C6.13807 1.25 6.25 1.36193 6.25 1.5L5.75 1.5ZM5.75 8.5L5.75 1.5L6.25 1.5L6.25 8.5L5.75 8.5Z" fill="#E53B35"/>
<path d="M6.21437 10.6427L7.13652 9.1058C7.29649 8.83919 7.10444 8.5 6.79352 8.5L5.20648 8.5C4.89556 8.5 4.70351 8.83919 4.86348 9.1058L5.78563 10.6427C5.88273 10.8045 6.11727 10.8045 6.21437 10.6427Z" fill="#E53B35"/>
</svg>
