<svg width="18" height="18" viewBox="0 0 18 18" fill="none" xmlns="http://www.w3.org/2000/svg">
<path d="M11.25 2.25H6.75C5.09315 2.25 3.75 3.59315 3.75 5.25V11.25" stroke="white"/>
<path d="M6.5 8.625C6.5 7.73378 6.50074 7.10721 6.55497 6.62619C6.60806 6.15524 6.70707 5.88609 6.86163 5.68467C6.95473 5.56334 7.06334 5.45473 7.18467 5.36163C7.38609 5.20707 7.65524 5.10806 8.12619 5.05497C8.60721 5.00074 9.23378 5 10.125 5C11.0162 5 11.6428 5.00074 12.1238 5.05497C12.5948 5.10806 12.8639 5.20707 13.0653 5.36163C13.1867 5.45473 13.2953 5.56334 13.3884 5.68467C13.5429 5.88609 13.6419 6.15524 13.695 6.62619C13.7493 7.10721 13.75 7.73378 13.75 8.625V11.625C13.75 12.5162 13.7493 13.1428 13.695 13.6238C13.6419 14.0948 13.5429 14.3639 13.3884 14.5653C13.2953 14.6867 13.1867 14.7953 13.0653 14.8884C12.8639 15.0429 12.5948 15.1419 12.1238 15.195C11.6428 15.2493 11.0162 15.25 10.125 15.25C9.23378 15.25 8.60721 15.2493 8.12619 15.195C7.65524 15.1419 7.38609 15.0429 7.18467 14.8884C7.06334 14.7953 6.95473 14.6867 6.86163 14.5653C6.70707 14.3639 6.60806 14.0948 6.55497 13.6238C6.50074 13.1428 6.5 12.5162 6.5 11.625V8.625Z" stroke="white"/>
</svg>
