<svg width="12" height="12" viewBox="0 0 12 12" fill="none" xmlns="http://www.w3.org/2000/svg">
<path d="M5.75 3.5C5.75 3.36193 5.86193 3.25 6 3.25C6.13807 3.25 6.25 3.36193 6.25 3.5L5.75 3.5ZM6.25 10.5C6.25 10.6381 6.13807 10.75 6 10.75C5.86193 10.75 5.75 10.6381 5.75 10.5L6.25 10.5ZM6.25 3.5L6.25 10.5L5.75 10.5L5.75 3.5L6.25 3.5Z" fill="#16C784"/>
<path d="M5.78563 1.35729L4.86348 2.8942C4.70351 3.16081 4.89556 3.5 5.20648 3.5L6.79352 3.5C7.10444 3.5 7.29649 3.16081 7.13652 2.8942L6.21437 1.35729C6.11727 1.19545 5.88273 1.19545 5.78563 1.35729Z" fill="#16C784"/>
</svg>
