<svg width="26" height="26" viewBox="0 0 26 26" fill="none" xmlns="http://www.w3.org/2000/svg">
<circle cx="13" cy="13" r="11" fill="#2B2D42"/>
<rect width="26" height="26" rx="13" fill="#8D99AE" fill-opacity="0.5"/>
<path d="M11.6666 17.6667L11.3131 17.3131L10.9595 17.6667L11.3131 18.0202L11.6666 17.6667ZM13.9797 14.6464L11.3131 17.3131L12.0202 18.0202L14.6868 15.3536L13.9797 14.6464ZM11.3131 18.0202L13.9797 20.6869L14.6868 19.9798L12.0202 17.3131L11.3131 18.0202Z" fill="white"/>
<path d="M17.0414 10.6666C17.4758 11.419 17.6916 12.2777 17.6643 13.1461C17.6371 14.0145 17.368 14.8581 16.8873 15.5818C16.4067 16.3055 15.7335 16.8807 14.9436 17.2426C14.1537 17.6044 13.2785 17.7386 12.4165 17.63" stroke="white" stroke-linecap="round"/>
<path d="M14.3334 8.33333L14.6869 8.68689L15.0405 8.33333L14.6869 7.97978L14.3334 8.33333ZM12.0203 11.3536L14.6869 8.68689L13.9798 7.97978L11.3132 10.6464L12.0203 11.3536ZM14.6869 7.97978L12.0203 5.31311L11.3132 6.02022L13.9798 8.68689L14.6869 7.97978Z" fill="white"/>
<path d="M8.95859 15.3334C8.51788 14.5701 8.30236 13.6975 8.33697 12.8168C8.37159 11.9361 8.65493 11.0831 9.1542 10.3567C9.65346 9.63035 10.3482 9.06021 11.1581 8.71231C11.968 8.36441 12.8598 8.25298 13.7303 8.39091" stroke="white" stroke-linecap="round"/>
</svg>
